<?xml version="1.0" standalone="no"?>
<!DOCTYPE svg PUBLIC "-//W3C//DTD SVG 20010904//EN"
 "http://www.w3.org/TR/2001/REC-SVG-20010904/DTD/svg10.dtd">
<svg version="1.0" xmlns="http://www.w3.org/2000/svg"
 width="80.000000pt" height="80.000000pt" viewBox="0 0 80.000000 80.000000"
 preserveAspectRatio="xMidYMid meet">
<metadata>
Created by potrace 1.11, written by Peter Selinger 2001-2013
</metadata>
<g transform="translate(0.000000,80.000000) scale(0.100000,-0.100000)"
fill="#000000" stroke="none">
<path d="M159 645 c-98 -50 -159 -143 -159 -245 0 -183 204 -324 358 -250 l42
20 42 -20 c154 -74 358 70 358 253 0 179 -206 320 -358 247 l-42 -20 -42 20
c-57 27 -138 25 -199 -5z m479 -41 c94 -47 147 -158 122 -252 -21 -75 -62
-127 -125 -158 -48 -23 -64 -26 -118 -22 -95 8 -157 51 -196 138 -26 57 -26
123 0 180 24 54 43 75 90 105 68 44 151 47 227 9z"/>
<path d="M476 423 c-20 -60 -36 -111 -36 -115 0 -17 40 -7 50 12 8 16 21 20
56 20 37 0 47 -4 51 -20 3 -13 14 -20 29 -20 13 0 24 3 24 8 0 4 -17 55 -37
115 -37 105 -39 107 -69 107 -31 0 -32 -2 -68 -107z m84 11 c14 -35 13 -41 -7
-48 -24 -10 -34 6 -27 42 8 39 21 41 34 6z"/>
</g>
</svg>
